<svg xmlns="http://www.w3.org/2000/svg" width="163.839" height="163.839" fill-rule="evenodd" clip-rule="evenodd" image-rendering="optimizeQuality" shape-rendering="geometricPrecision" text-rendering="geometricPrecision" viewBox="0 0 43349 43349"><circle cx="21675" cy="21675" r="21505" fill="#56698f"/><path fill="#2b2a29" d="M34525 38920c0,0 -1570,-2666 -3813,-2666l-2552 0c5343,-5442 4300,-20601 4300,-27937 0,-1649 -916,-905 -916,-905l-215 216c-53,61 -98,118 -152,185 -1130,1367 -3955,4377 -4704,5727 -3707,-2342 -6484,-1694 -9401,-85 -631,-794 -5004,-6042 -5004,-6042 0,0 -916,-744 -916,905 0,5509 -305,23471 3825,27667l-2630 270c-2231,229 -3390,2666 -3390,2666 7440,5477 18128,5477 25568,0z"/><path fill="#ddb39c" d="M14640 28546c144,-3121 4073,1917 7016,2125l1 0 1 0 11 0 4 0 4 0 4 0 4 0 7 0 4 0 4 0c41,2 83,3 124,4 41,-1 82,-2 124,-4l4 0 4 0 7 0 4 0 4 0 4 0 4 0 11 0 1 0 1 0c2942,-207 6872,-5245 7016,-2125 146,3171 -1714,9629 -5070,9629l-1903 0 -416 0 -1903 0c-3355,0 -5216,-6458 -5070,-9629z"/><path fill="#c5c6c6" d="M20378 24826c54,-530 -446,-572 -1155,-844 -505,-194 -959,-339 -1495,-529 -1021,-362 -2583,-955 -2388,883 38,354 204,429 378,597 304,294 705,755 1031,1000 559,419 1818,-173 2300,-416 362,-182 1078,-503 1330,-691zm7020 -1729c-1041,205 -2094,645 -3033,981 -1640,588 -873,817 691,1560 1849,877 2006,333 2753,-386 549,-529 763,-548 710,-1307 -47,-674 -392,-992 -1121,-848z"/><path fill="#c8858b" d="M19493 34139l4179 0c252,0 459,206 459,459l0 0c0,252 -206,459 -459,459l-4179 0c-252,0 -459,-206 -459,-459l0 0c0,-252 206,-459 459,-459z"/><path fill="#2b2a29" d="M24891 27505l-2078 1938c0 0-564 413-1053 394-488 19-1053-394-1053-394l-2078-1938c303-163 2766-2464 3166-2272 245-118 2796 2111 3096 2272zM21821 37308l0 0c558 0 1014 456 1014 1013l0 2004-2027 0 0-2004c0-557 456-1013 1014-1013z"/><path fill="#56698f" d="M29456 34556c-1171,1908 -3182,4299 -5548,4299l-1415 0 0 0 -1 0 -1 0 -2 0 -3 0 -4 0 -4 0 -5 0 -6 0 -7 0 -6 0 -2 0 -9 0 -10 0 -11 0 -12 0 -14 0 -15 0 -8 0 -8 0 -17 0 -19 0 -20 0 -15 0 -7 0 -23 0 -25 0 -21 0 -5 0 -28 0 -30 0 -11 0 -21 0 -33 0 -16 0 -19 0 -37 0 -13 0 -26 0 -39 0 -2 0 -43 0 -19 0 -26 0 -34 0 -13 0 -46 0 -4 0 -52 0 -1 0 -53 0 -1 0 -52 0 -4 0 -46 0 -13 0 -34 0 -26 0 -19 0 -43 0 -2 0 -39 0 -26 0 -13 0 -37 0 -19 0 -17 0 -33 0 -21 0 -11 0 -30 0 -28 0 -5 0 -21 0 -25 0 -23 0 -7 0 -15 0 -20 0 -19 0 -17 0 -8 0 -9 0 -15 0 -14 0 -12 0 -11 0 -10 0 -9 0 -2 0 -6 0 -7 0 -6 0 -5 0 -4 0 -4 0 -3 0 -2 0 -2 0 -1 0 0 0 -1415 0c-2366,0 -4333,-2474 -5504,-4382l-617 1160c0,0 1366,1646 2452,2872 1086,1226 3844,1255 3844,1255l1483 0 1150 0 1482 0c0,0 2759,-29 3844,-1255 1086,-1226 2452,-2872 2452,-2872l-573 -1077z"/></svg>