<svg xmlns="http://www.w3.org/2000/svg" enable-background="new 0 0 64 64" viewBox="0 0 64 64"><path fill="#353233" d="M44.4,25.1c-0.2,0.5-0.3,0.9-0.6,1.4c-0.3,0.8-0.7,1.6-0.9,2.5l0,0.1l0,0.2c0,0.5,0,1,0,1.7
			c0,0.3,0,0.5,0.1,0.8c0.1,0.9,0.2,1.7,0,2.4c-0.1,0.1-0.1,0.3-0.2,0.4c-0.1,0.2-0.3,0.3-0.4,0.5c-0.2,0.2-0.5,0.5-0.7,0.8
			c-0.5,0.8-0.6,1.6-0.6,2.4c0,0.2,0,0.4,0,0.6c-0.3,2.8-2.1,5.4-4.8,6.7c-0.5,0.3-1.1,0.5-1.6,0.6l-0.2,0c-0.2,0-0.4,0.1-0.5,0.1
			c-0.1,0-0.2,0-0.3,0c-0.3,0-0.6,0.1-0.9,0.1l-0.2,0c-0.1,0-0.3,0-0.4,0l-0.3,0c-1.6,0-3.1-0.4-4.4-1.1c-2.6-1.4-4.3-4.1-4.5-6.9
			l0-0.4c0-0.7,0-1.5-0.5-2.2c-0.2-0.3-0.5-0.6-0.8-0.8c-0.1-0.1-0.3-0.2-0.4-0.4c-0.1-0.2-0.2-0.3-0.3-0.5c-0.2-0.6-0.1-1.5,0-2.5
			c0-0.2,0.1-0.5,0.1-0.7c0-0.5,0.1-1.1,0-1.7l0-0.1c-0.1-1-0.5-1.9-0.9-2.7c-0.2-0.5-0.4-1-0.6-1.5c-0.4-1.2-0.3-2.5-0.2-3.6v-0.1
			l0.1-0.5c0-0.2,0.1-0.5,0.1-0.8c0.1-0.3,0.1-0.6,0.1-0.9c0-0.3,0.1-0.6,0.1-0.8h0l0.1-1.4v-0.2c0-0.3,0-0.5,0-0.8
			c0-0.8-0.1-1.5-0.2-2.3c-0.2-1.5-0.4-2.9-0.1-4.2C20,7.1,21.6,5,24,3.5c0.5-0.3,1-0.6,1.4-0.8c0.3-0.1,0.5-0.3,0.8-0.4
			c0.5-0.2,1-0.4,1.5-0.6c0.3-0.1,0.5-0.2,0.7-0.2c0.4-0.1,0.6-0.2,0.9-0.2c0.3-0.1,0.6-0.1,0.8-0.2c0.2,0,0.5-0.1,0.7-0.1l0.1,0
			c0.3,0,0.5-0.1,0.7-0.1c0,0,0.1,0,0.2,0l0.2,0c0.1,0,0.3,0,0.4,0l0.1,0h0.1c0.5,0.1,1,0.2,1.5,0.3c0.5,0.1,1,0.2,1.5,0.4
			c0.2,0.1,0.5,0.1,0.7,0.2c0.4,0.1,0.8,0.3,1.3,0.5l0,0l0.2,0.1c0.3,0.1,0.5,0.2,0.7,0.3c0.7,0.3,1.3,0.7,2,1.1
			c0.6,0.4,1.2,0.9,1.7,1.4c0,0,0.3,0.3,0.3,0.4c0.1,0.2,0.3,0.4,0.5,0.6c0.1,0.2,0.3,0.4,0.4,0.6C43.5,7,43.6,7,43.6,7.1
			c0.1,0.2,0.2,0.4,0.3,0.5c0.2,0.3,0.3,0.6,0.4,0.9c0.1,0.3,0.2,0.6,0.2,0.8c0,0.2,0.1,0.5,0.1,0.7c0.1,0.8,0,1.6,0,2.2
			c0,0.3-0.1,0.7-0.1,1l-0.1,0.6c0,0.3-0.1,0.7-0.1,1l0,0.4c0,0.2,0,0.5,0,0.7c0,0.2,0,0.4,0,0.6c0,0.1,0,0.3,0,0.4
			c0,0.6,0.1,1.4,0.2,2.3l0,0.2l0.1,1C44.6,22.1,44.8,23.6,44.4,25.1z"/><path fill="#454344" d="M40.7,7.6c0,4.8-4,8.7-8.9,8.7c-4.9,0-8.9-3.9-8.9-8.7c0-2.2,0.8-4.2,2.2-5.7c2.1-1,4.6-1.7,7-1.8
			c2.1,0.2,4.2,0.7,6.2,1.5C39.8,3.1,40.7,5.2,40.7,7.6z"/><path fill="#aa1f23" d="M36.1,32.1c0,0,2.3,1.2,4.1,1.2l-0.5,3c0,0-1.7,0-4.7-1.5c-0.3-0.2-0.6-0.4-1-0.6c-1.6-0.8-4-0.6-5.3,0.6
			c-3,1.5-4.7,1.5-4.7,1.5l-0.5-3c1.8,0.1,4.1-1.2,4.1-1.2c-5.2-3-7.7-7.1-9-10.8c0.2-1.5,0.5-3.1,0.5-4.6c0-0.2,0-0.5,0-0.7
			c2.2,4.3,6.7,11.5,12.9,13.6c6.7-2.3,11.5-10.7,13.4-14.7c0,0.5-0.1,1.1-0.1,1.6c0,1.2,0.2,2.5,0.3,3.7
			C44.3,24.1,41.8,28.9,36.1,32.1z"/><path fill="#cdb599" d="M39.6,36.3l-0.3,3.2c0,0.4-0.2,0.8-0.4,1.1l-2.2,2.9c-0.4,0.6-1.1,0.9-1.9,0.9h-6.1c-0.7,0-1.4-0.3-1.9-0.9
			l-2.2-2.9c-0.2-0.3-0.4-0.7-0.4-1.1l-0.3-3.2c0,0,1.7,0,4.7-1.5c1.3-1.2,3.7-1.4,5.3-0.6c0.3,0.2,0.6,0.5,1,0.6
			C37.9,36.3,39.6,36.3,39.6,36.3z"/><path fill="#1a1a1a" d="M45.2 14.9c-1.9 4-6.7 12.4-13.4 14.7V16.3c4.9 0 8.9-3.9 8.9-8.7 0-2.3-.9-4.5-2.5-6 1 .4 2 .9 2.8 1.5 2.2 1.5 3.9 3.6 4.4 6.1C45.8 11 45.4 12.9 45.2 14.9zM43.9 29.4c-.1.5 0 1 0 1.5.1 1.2.4 2.5 0 3.6-.1.2-.2.4-.3.6-.3.4-.8.8-1.1 1.2-.4.6-.4 1.3-.5 2 0 .2 0 .4 0 .7-.3 3.1-2.4 6.1-5.4 7.5-.6.3-1.2.5-1.8.7-.3.1-.5.1-.8.2-.1 0-.2.1-.4.1-.3 0-.6.1-.9.1-.1 0-.1 0-.2 0-.3 0-.5 0-.8 0v-3.1h3c.3 0 .5 0 .8-.1.1 0 .2-.1.3-.1.2-.1.3-.2.4-.3.1-.1.1-.1.2-.2.1-.1.1-.1.2-.2l2.2-2.9c.1-.1.1-.2.2-.2.1-.2.2-.4.2-.6 0-.1 0-.2.1-.3l.1-1.2.2-2 .5-3.1c-.4 0-.8 0-1.2-.1-.6-.1-1.1-.3-1.6-.5-.4-.1-.7-.3-.9-.4-.2-.1-.4-.2-.4-.2s0 0 0 0c1.1-.6 2-1.3 2.9-2 .3-.2.6-.5.8-.7.3-.2.5-.5.8-.7 1.3-1.4 2.4-2.8 3.2-4.3.8-1.4 1.3-2.9 1.7-4.2.2 1.8.4 3.5-.1 5.3C44.9 26.7 44.1 27.9 43.9 29.4 43.9 29.3 43.9 29.4 43.9 29.4z"/><path fill="#272627" d="M40.7,7.6c0,4.8-4,8.7-8.9,8.7V0c0.1,0,0.2,0,0.2,0c2.1,0.2,4.2,0.7,6.2,1.5C39.8,3.1,40.7,5.2,40.7,7.6z"/><path fill="#7b1316" d="M36.1,32.1c0,0,2.3,1.2,4.1,1.2l-0.5,3c0,0-1.7,0-4.7-1.5c-0.3-0.2-0.6-0.4-1-0.6c-0.6-0.3-1.4-0.5-2.2-0.5
			v-4.2c6.7-2.3,11.5-10.7,13.4-14.7c0,0.5-0.1,1.1-0.1,1.6c0,1.2,0.2,2.5,0.3,3.7C44.3,24.1,41.8,28.9,36.1,32.1z"/><path fill="#978876" d="M39.6,36.3l-0.3,3.2c0,0.4-0.2,0.8-0.4,1.1l-2.2,2.9c-0.4,0.6-1.1,0.9-1.9,0.9h-3V33.7
			c0.8,0,1.5,0.2,2.2,0.5c0.3,0.2,0.6,0.5,1,0.6C37.9,36.3,39.6,36.3,39.6,36.3z"/><path d="M43.9,29.3c0.2-1.4,1-2.6,1.4-3.9c0.5-1.7,0.3-3.5,0.1-5.3c0-0.3-0.1-0.6-0.1-0.9c0-0.1,0-0.2,0-0.3
			c-0.1-0.8-0.2-1.5-0.2-2.2c0-0.1,0-0.2,0-0.3c0-0.2,0-0.3,0-0.5c0-0.2,0-0.4,0-0.6c0-0.1,0-0.3,0-0.4c0.1-0.5,0.1-1,0.2-1.5
			c0,0,0,0,0,0c0-0.3,0.1-0.7,0.1-1c0.1-0.8,0.1-1.6,0-2.4c0-0.3,0-0.5-0.1-0.8c-0.1-0.3-0.1-0.6-0.2-0.9c-0.1-0.3-0.2-0.7-0.4-1
			c-0.1-0.2-0.2-0.4-0.3-0.5c-0.1-0.1-0.1-0.2-0.2-0.3c-0.1-0.2-0.3-0.4-0.4-0.6c-0.2-0.3-0.4-0.5-0.6-0.8c-0.1-0.1-0.2-0.2-0.3-0.3
			C42.4,4,41.7,3.5,41,3c-0.7-0.4-1.4-0.8-2.1-1.2c-0.2-0.1-0.5-0.2-0.7-0.3l0,0c-0.5-0.2-1-0.4-1.5-0.6c-0.3-0.1-0.5-0.2-0.8-0.2
			c-0.5-0.1-1-0.3-1.6-0.4c-0.5-0.1-1-0.2-1.5-0.3c-0.1,0-0.1,0-0.2,0C32.5,0,32.2,0,32,0h-0.2c0,0,0,0-0.1,0
			c-0.3,0-0.5,0.1-0.8,0.1c0,0-0.1,0-0.1,0c-0.3,0-0.5,0.1-0.8,0.1c-0.3,0-0.6,0.1-0.9,0.2c-0.3,0.1-0.6,0.1-0.9,0.2
			c-0.3,0.1-0.6,0.2-0.8,0.3c-0.5,0.2-1.1,0.4-1.6,0.6c-0.3,0.1-0.5,0.2-0.8,0.4c-0.5,0.2-1,0.5-1.5,0.8c-2.5,1.5-4.4,3.9-4.9,6.6
			c-0.4,2.2,0.2,4.5,0.3,6.7c0,0,0,0,0,0v0c0,0.2,0,0.5,0,0.7c0,0.2,0,0.4,0,0.6c0,0.6-0.1,1.2-0.2,1.7c-0.1,0.6-0.2,1.2-0.2,1.7
			c0,0.2,0,0.4-0.1,0.6c0,0,0,0,0,0c-0.2,1.4-0.2,2.7,0.2,4c0.4,1.4,1.3,2.6,1.4,4c0,0,0,0,0,0c0,0.5,0,1,0,1.5
			c-0.1,1.3-0.4,2.5,0,3.6c0,0,0,0,0,0c0.1,0.3,0.3,0.5,0.5,0.8c0.2,0.2,0.4,0.4,0.6,0.6c0.2,0.2,0.4,0.3,0.5,0.5
			c0.3,0.5,0.3,1.2,0.4,1.9c0,0.1,0,0.2,0,0.3c0.1,2.2,1.1,4.4,2.7,6c0.7,0.7,1.5,1.3,2.3,1.8c1.5,0.8,3.1,1.2,4.8,1.2
			c0.3,0,0.5,0,0.8,0c0.1,0,0.1,0,0.2,0c0.3,0,0.6,0,0.9-0.1c0.1,0,0.3,0,0.4-0.1c0.3-0.1,0.5-0.1,0.8-0.2c0.6-0.2,1.2-0.4,1.8-0.7
			c0.9-0.4,1.7-1,2.4-1.7c1.7-1.6,2.8-3.7,3-5.9c0-0.2,0-0.5,0-0.7c0-0.7,0.1-1.4,0.5-2c0.1-0.2,0.2-0.3,0.4-0.5
			c0.2-0.3,0.5-0.5,0.7-0.8c0.2-0.2,0.3-0.4,0.3-0.6c0.4-1.1,0.1-2.3,0-3.6C43.9,30.4,43.8,29.9,43.9,29.3
			C43.9,29.4,43.9,29.3,43.9,29.3z M43.8,26.5c-0.3,0.8-0.7,1.6-0.9,2.5l0,0.1l0,0.2c0,0.5,0,1,0,1.7c0,0.3,0,0.5,0.1,0.8
			c0.1,0.9,0.2,1.7,0,2.4c-0.1,0.1-0.1,0.3-0.2,0.4c-0.1,0.2-0.3,0.3-0.4,0.5c-0.2,0.2-0.5,0.5-0.7,0.8c-0.5,0.8-0.6,1.6-0.6,2.4
			c0,0.2,0,0.4,0,0.6c-0.3,2.8-2.1,5.4-4.8,6.7c-0.5,0.3-1.1,0.5-1.6,0.6l-0.2,0c-0.2,0-0.4,0.1-0.5,0.1c-0.1,0-0.2,0-0.3,0
			c-0.3,0-0.6,0.1-0.9,0.1l-0.2,0c-0.1,0-0.3,0-0.4,0l-0.3,0c-1.6,0-3.1-0.4-4.4-1.1c-2.6-1.4-4.3-4.1-4.5-6.9l0-0.4
			c0-0.7,0-1.5-0.5-2.2c-0.2-0.3-0.5-0.6-0.8-0.8c-0.1-0.1-0.3-0.2-0.4-0.4c-0.1-0.2-0.2-0.3-0.3-0.5c-0.2-0.6-0.1-1.5,0-2.5
			c0-0.2,0.1-0.5,0.1-0.7c0-0.5,0.1-1.1,0-1.7l0-0.1c-0.1-1-0.5-1.9-0.9-2.7c-0.2-0.5-0.4-1-0.6-1.5c-0.4-1.2-0.3-2.5-0.2-3.6v-0.1
			l0.1-0.5c0-0.2,0.1-0.5,0.1-0.8c0.1-0.3,0.1-0.6,0.1-0.9c0-0.3,0.1-0.6,0.1-0.8h0l0.1-1.4v-0.2c0-0.3,0-0.5,0-0.8
			c0-0.8-0.1-1.5-0.2-2.3c-0.2-1.5-0.4-2.9-0.1-4.2C20,7.1,21.6,5,24,3.5c0.5-0.3,1-0.6,1.4-0.8c0.3-0.1,0.5-0.3,0.8-0.4
			c0.5-0.2,1-0.4,1.5-0.6c0.3-0.1,0.5-0.2,0.7-0.2c0.4-0.1,0.6-0.2,0.9-0.2c0.3-0.1,0.6-0.1,0.8-0.2c0.2,0,0.5-0.1,0.7-0.1l0.1,0
			c0.3,0,0.5-0.1,0.7-0.1c0,0,0.1,0,0.2,0l0.2,0c0.1,0,0.3,0,0.4,0l0.1,0h0.1c0.5,0.1,1,0.2,1.5,0.3c0.5,0.1,1,0.2,1.5,0.4
			c0.2,0.1,0.5,0.1,0.7,0.2c0.4,0.1,0.8,0.3,1.3,0.5l0,0l0.2,0.1c0.3,0.1,0.5,0.2,0.7,0.3c0.7,0.3,1.3,0.7,2,1.1
			c0.6,0.4,1.2,0.9,1.7,1.4c0,0,0.3,0.3,0.3,0.4c0.1,0.2,0.3,0.4,0.5,0.6c0.1,0.2,0.3,0.4,0.4,0.6C43.5,7,43.6,7,43.6,7.1
			c0.1,0.2,0.2,0.4,0.3,0.5c0.2,0.3,0.3,0.6,0.4,0.9c0.1,0.3,0.2,0.6,0.2,0.8c0,0.2,0.1,0.5,0.1,0.7c0.1,0.8,0,1.6,0,2.2
			c0,0.3-0.1,0.7-0.1,1l-0.1,0.6c0,0.3-0.1,0.7-0.1,1l0,0.4c0,0.2,0,0.5,0,0.7c0,0.2,0,0.4,0,0.6c0,0.1,0,0.3,0,0.4
			c0,0.6,0.1,1.4,0.2,2.3l0,0.2l0.1,1c0.2,1.8,0.4,3.3-0.1,4.8C44.2,25.6,44,26,43.8,26.5z"/><path fill="#353233" d="M59,57.3c-1.7,0.8-6.7,2.8-13.3,4.2c-0.4,0.1-0.9,0.2-1.3,0.3c-0.4,0.1-0.8,0.2-1.2,0.2
			c-0.5,0.1-0.9,0.2-1.3,0.2c-3.1,0.5-6.2,0.7-9.3,0.8h-0.9c-3,0-6.2-0.3-9.3-0.8c-0.5-0.1-0.9-0.1-1.3-0.2
			c-0.5-0.1-0.9-0.2-1.3-0.2c-0.5-0.1-0.9-0.2-1.4-0.3C11.7,60.1,6.7,58.1,5,57.3c0.1-0.5,0.2-1,0.3-1.4l0-0.1
			c0.1-0.3,0.2-0.5,0.2-0.8l0.3-0.8l0,0c0.1-0.3,0.2-0.5,0.3-0.7l0.2-0.3v0l0,0c0.2-0.4,0.5-0.7,0.7-1C7.2,52,7.3,52,7.4,51.9
			c0.3-0.3,0.7-0.6,1.1-0.8c0.2-0.1,0.4-0.2,0.6-0.3l0.6-0.3c3.2-1.3,6.5-2.6,9.4-4.8l0.3-0.2c0.4-0.3,0.9-0.7,1.3-1.2
			c0.1-0.2,0.2-0.4,0.3-0.5c0.1-0.2,0.1-0.5,0.1-0.8c0-0.8,0-1.6,0-2.4l0-4.7c-0.2-0.2-0.4-0.4-0.6-0.6c-0.2-0.3-0.4-0.5-0.5-0.8
			c0,0,0,0,0,0v-0.4c0.1,0.3,0.3,0.6,0.5,0.8c0.2,0.2,0.4,0.4,0.6,0.6c0.2,0.2,0.4,0.4,0.5,0.5c0.3,0.6,0.3,1.2,0.4,1.9
			c0,0.1,0,0.2,0,0.3c0.1,2,0.9,4,2.2,5.5c0.8,0.9,1.7,1.7,2.8,2.2c1.5,0.8,3.1,1.2,4.8,1.2c0.3,0,0.5,0,0.8,0c0.1,0,0.1,0,0.2,0
			c0.3,0,0.6-0.1,0.9-0.1c0.1,0,0.3,0,0.4-0.1c0.3,0,0.5-0.1,0.8-0.2c0.6-0.2,1.2-0.4,1.8-0.7c1.1-0.5,2.1-1.3,2.9-2.1
			c1.4-1.5,2.3-3.4,2.5-5.4c0-0.2,0-0.4,0-0.7c0-0.7,0.1-1.4,0.5-2c0.1-0.2,0.2-0.3,0.4-0.4c0.2-0.3,0.5-0.5,0.7-0.8
			c0.2-0.2,0.3-0.4,0.3-0.6v0.4c-0.1,0.2-0.2,0.4-0.3,0.6c-0.2,0.3-0.5,0.5-0.7,0.8c0,2.7,0,6.3,0,7.1c0,0.3,0,0.5,0.1,0.7
			c0.1,0.2,0.2,0.4,0.3,0.5c0.3,0.5,0.9,1,1.4,1.3l0.1,0.1c0,0,0.1,0.1,0.2,0.1c0.5,0.4,1,0.7,1.4,1c2.5,1.6,5.3,2.8,8.1,3.9
			l0.5,0.2c0.2,0.1,0.4,0.2,0.6,0.3l0.2,0.1h0c0.3,0.2,0.6,0.4,0.9,0.7c0.1,0.1,0.2,0.2,0.3,0.3c0.3,0.3,0.5,0.7,0.7,1
			c0.3,0.5,0.5,1,0.7,1.5c0.2,0.4,0.3,0.8,0.4,1.2C58.8,56.4,58.9,56.8,59,57.3z"/><path fill="#d81f26" d="M45.4 44.7c-1.6 3.4-5.2 7.3-13.4 7.8-8.2-.5-11.8-4.3-13.4-7.8.4-.3.9-.7 1.2-1.1.1-.1.1-.2.2-.3 1.4 3.4 4.6 7.3 11.9 7.7 7.3-.4 10.5-4.3 11.9-7.7 0 .1.1.2.2.3C44.4 44.1 45 44.5 45.4 44.7zM19.5 54.1v8.7c-.5-.1-.9-.2-1.4-.3l0-7.7-3.1-2.6-4.4 2.5-5.1-2.1c.2-.4.5-.8.8-1.2l4.2 1.7 4.6-2.6L19.5 54.1z"/><path fill="#d81f26" d="M15 58.5l-2 .5-8.7-3.4v0c.1-.4.2-.9.4-1.3L15 58.5zM58.5 52.7l-5.1 2.1-4.4-2.5-3.1 2.6 0 7.7c-.4.1-.9.2-1.4.3v-8.7l4.4-3.5 4.6 2.6 4.2-1.7C57.9 51.9 58.2 52.2 58.5 52.7z"/><path fill="#d81f26" d="M59.7,55.7L51,59.1l-2-0.5l10.3-4.2C59.4,54.8,59.6,55.2,59.7,55.7z"/><polyline fill="none" points="20.1 38.3 20.1 38.3 20.1 38.3 20.1 38.3"/><path d="M20.1,38.3L20.1,38.3v-0.2c0-1.2,0-3,0-4.2c0.1,0.3,0.3,0.3,0.5,0.5c0.2,0.2,0.4,0.3,0.6,0.5l0,5.6c0,0.8,0,1.6,0,2.4
			c0,0.3-0.1,0.6-0.1,0.8c-0.1,0.2-0.2,0.4-0.3,0.5c-0.4,0.5-0.9,0.9-1.3,1.2l-0.3,0.2c-2.9,2.2-6.2,3.5-9.4,4.8l-0.6,0.3
			c-0.2,0.1-0.4,0.2-0.6,0.3c-0.4,0.2-0.7,0.5-1.1,0.8C7.3,52,7.2,52,7.1,52.2c-0.3,0.3-0.5,0.6-0.7,1l0,0l0,0l-0.2,0.3
			C6.1,53.7,6,54,5.9,54.2l0,0L5.6,55c-0.1,0.3-0.2,0.5-0.2,0.8l0,0.1c-0.1,0.5-0.2,1-0.3,1.4c1.7,0.8,6.7,2.8,13.3,4.2
			c0.4,0.1,0.9,0.2,1.3,0.3c0.4,0.1,0.8,0.1,1.3,0.2c0.4,0.1,0.9,0.2,1.3,0.2c3.1,0.5,6.2,0.7,9.3,0.8h0.9c3,0,6.2-0.3,9.3-0.8
			c0.5-0.1,0.9-0.1,1.3-0.2c0.4-0.1,0.8-0.1,1.2-0.2c0.5-0.1,0.9-0.2,1.3-0.3c6.7-1.4,11.6-3.4,13.3-4.2c-0.1-0.5-0.2-1-0.3-1.5
			c-0.1-0.4-0.2-0.8-0.4-1.2c-0.2-0.5-0.4-1-0.7-1.5c-0.2-0.3-0.5-0.7-0.7-1c-0.1-0.1-0.2-0.2-0.3-0.3c-0.3-0.3-0.5-0.5-0.9-0.7h0
			l-0.2-0.1c-0.2-0.1-0.4-0.2-0.6-0.3l-0.5-0.2c-2.7-1.1-5.5-2.2-8.1-3.9c-0.4-0.3-0.9-0.6-1.4-1c-0.1,0-0.2-0.1-0.2-0.1l-0.1-0.1
			c-0.4-0.3-1-0.7-1.4-1.3c-0.1-0.2-0.2-0.3-0.3-0.5c-0.1-0.2-0.1-0.5-0.1-0.7c0-0.8,0-4.9,0-7.6c0.2-0.3,0.5-0.7,0.7-1
			c0.2-0.2,0.3-0.1,0.3-0.4c0,1.1,0,2.7,0,3.8c0,0.2,0,0.4,0,0.6c0,0.4,0,0.8,0,1.1c0,1.2,0,2.3,0,3.5c0,0.1,0,0.3,0.1,0.4
			c0,0.1,0.1,0.2,0.2,0.3c0.3,0.5,0.8,0.8,1.2,1.1c0.1,0.1,0.1,0.1,0.2,0.1c0.5,0.3,0.9,0.7,1.4,1c2.6,1.7,5.5,2.8,8.4,4
			c0.3,0.1,0.5,0.2,0.7,0.4h0c0.5,0.3,0.9,0.6,1.3,1c0.1,0.1,0.2,0.2,0.3,0.3c0.3,0.4,0.6,0.8,0.8,1.2c0.3,0.5,0.6,1.1,0.8,1.7
			c0.2,0.4,0.3,0.9,0.4,1.3c0.2,0.8,0.3,1.5,0.4,2.3c0,0-5.7,2.8-14.2,4.6c-0.4,0.1-0.9,0.2-1.4,0.3c-0.4,0.1-0.8,0.2-1.3,0.2
			c-0.5,0.1-0.9,0.2-1.4,0.2c-2.9,0.5-6.1,0.7-9.4,0.8h-0.9c-3.3,0-6.5-0.3-9.4-0.8c-0.5-0.1-0.9-0.1-1.4-0.2
			c-0.4-0.1-0.9-0.2-1.3-0.2c-0.5-0.1-0.9-0.2-1.4-0.3C9.7,60.7,3.9,58,3.9,58c0.1-0.7,0.2-1.5,0.4-2.3v0c0.1-0.5,0.3-0.9,0.4-1.3
			c0,0,0-0.1,0-0.1c0-0.1,0-0.1,0-0.1c0.2-0.4,0.3-0.8,0.6-1.2c0,0,0,0,0,0c0-0.1,0.1-0.2,0.2-0.3c0.2-0.4,0.5-0.8,0.8-1.2
			c0.1-0.1,0.2-0.2,0.3-0.3c0.4-0.4,0.8-0.7,1.3-1c0.2-0.1,0.5-0.3,0.7-0.4c3.4-1.4,6.9-2.7,9.8-5c0,0,0.1-0.1,0.1-0.1
			c0.4-0.3,0.9-0.7,1.3-1.1c0.1-0.1,0.1-0.2,0.2-0.3c0.1-0.1,0.1-0.3,0.1-0.4c0-1.2,0-2.3,0-3.5C20.1,39.1,20.1,38.7,20.1,38.3
			L20.1,38.3z"/></svg>